<svg id="레이어_1" data-name="레이어 1" xmlns="http://www.w3.org/2000/svg" viewBox="0 0 120 106"><defs><style>.cls-1{fill:none;stroke:#000;stroke-linecap:round;stroke-linejoin:round;stroke-width:4px;}</style></defs><path class="cls-1" d="M64.6,45.06,85,24.05a31.22,31.22,0,0,0-20.2-7.86L64.6,45.06Z"/><path class="cls-1" d="M91.39,70.62,58.11,53V16l-.75,0C36.92,16,21.83,32.56,21.83,53a37,37,0,0,0,37,37c14.33,0,27.66-8.46,32.56-19.38Z"/><polygon points="83.77 31.84 78.44 37.31 73.08 54.38 76.17 56.04 83.77 31.84 83.77 31.84"/><polygon points="76.86 38.93 71.53 44.41 69.07 52.24 72.16 53.89 76.86 38.93 76.86 38.93"/><path d="M85.1,60.82l3.09,1.66,7.5-23.88a37.13,37.13,0,0,0-2.21-4.47L85.1,60.82Z"/><path d="M97.85,46.6a32.09,32.09,0,0,0-1.58-6.46L89.1,63l3.09,1.65,5.66-18Z"/><path d="M98.12,49.17l-5,15.94,1.82,1A33.15,33.15,0,0,0,98.17,50.9c0-.58,0-1.16,0-1.73Z"/><path d="M85.34,30.21,77.08,56.53l3.1,1.65L89.46,28.6c-.4-.46-.82-.9-1.25-1.33l-2.87,2.94Z"/><polygon points="68.16 51.75 69.95 46.03 65.68 50.42 68.16 51.75 68.16 51.75"/><path d="M81.09,58.68l3.09,1.65L92.77,33a34.87,34.87,0,0,0-2.53-3.46L81.09,58.68Z"/></svg>