<svg id="레이어_1" data-name="레이어 1" xmlns="http://www.w3.org/2000/svg" viewBox="0 0 1080 128"><defs><style>.cls-1{fill:#7f5edd;}</style></defs><path class="cls-1" d="M0,0V57.2C17.35,70.58,35.6,82.11,69,82.11c37.51,0,55.92-14.54,75.4-29.93,20-15.77,40.61-32.07,81.6-32.07s61.63,16.3,81.59,32.07c19.49,15.39,37.89,29.93,75.4,29.93s55.92-14.54,75.4-29.93c20-15.77,40.61-32.07,81.6-32.07s61.63,16.3,81.6,32.07c19.48,15.39,37.89,29.93,75.4,29.93s55.92-14.54,75.4-29.93c20-15.77,40.61-32.07,81.6-32.07s61.63,16.3,81.6,32.07c19.49,15.39,37.89,29.93,75.4,29.93,33.41,0,51.66-11.53,69-24.92V0Z"/><path d="M1029.33,45.86C1009.63,61.41,991,76.11,953,76.11s-56.63-14.7-76.33-30.25S836.46,14.11,796,14.11s-60.91,16.14-80.67,31.75S677,76.11,639,76.11s-56.64-14.7-76.33-30.25S522.46,14.11,482,14.11s-60.9,16.14-80.67,31.75S363,76.11,325,76.11s-56.63-14.7-76.33-30.25S208.46,14.11,168,14.11,107.09,30.25,87.33,45.86,49,76.11,11,76.11c-3.86,0-7.52-.16-11-.45v7c3.5.28,7.16.43,11,.43,40.46,0,60.9-16.15,80.67-31.76S130,21.11,168,21.11s56.63,14.69,76.32,30.24S284.53,83.11,325,83.11,385.9,67,405.66,51.35,444,21.11,482,21.11s56.64,14.69,76.33,30.24S598.52,83.11,639,83.11,699.89,67,719.66,51.35,758,21.11,796,21.11s56.64,14.69,76.33,30.24S912.53,83.11,953,83.11,1013.9,67,1033.67,51.35,1072,21.11,1110,21.11v-7C1069.53,14.11,1049.09,30.25,1029.33,45.86Z"/></svg>