<svg id="레이어_1" data-name="레이어 1" xmlns="http://www.w3.org/2000/svg" viewBox="0 0 67 98"><defs><style>.cls-1{fill:#fff;}</style></defs><path class="cls-1" d="M45.32,75.28A8.49,8.49,0,0,0,37,66.93H28.89a8.48,8.48,0,0,0-8.29,8.35c0,.11,0,.23,0,.34v7.66c0,.12,0,.23,0,.34A8.48,8.48,0,0,0,28.89,92H37a8.49,8.49,0,0,0,8.28-8.35,1.88,1.88,0,0,0,0-.34V75.62a1.94,1.94,0,0,0,0-.34Z"/><path class="cls-1" d="M50.45,6.62A2,2,0,0,0,49,6H18a2,2,0,0,0-2,2V42.12a2,2,0,0,0,.57,1.4l15.53,15.9h0v0A2,2,0,0,0,33.5,60a2,2,0,0,0,1.41-.59l0,0L50.46,43.52a2,2,0,0,0,.57-1.4V8A2,2,0,0,0,50.45,6.62Z"/></svg>