<svg id="레이어_1" data-name="레이어 1" xmlns="http://www.w3.org/2000/svg" viewBox="0 0 67 68"><defs><style>.cls-1{fill:#7f5edd;}</style></defs><path class="cls-1" d="M36.42,43.84l-6.29,0a1.45,1.45,0,0,1-1.45-1.49c.12-5.63.4-7.32.87-8.48a10.79,10.79,0,0,1,3.56-4l1.71-1.33a4.3,4.3,0,0,0,1-1,3.25,3.25,0,0,0,.69-2,4,4,0,0,0-.76-2.37,3.05,3.05,0,0,0-2.56-.84,2.73,2.73,0,0,0-2.57,1.09c-.55.87-.89,2-.75,4.53a1.45,1.45,0,0,1-1.45,1.53l-6.5.06A1.45,1.45,0,0,1,20.47,28c.22-6.73,1.61-10.18,5-12.29a13.57,13.57,0,0,1,7.45-2A16,16,0,0,1,42.5,16.5h0a10,10,0,0,1,4,8.63,9.76,9.76,0,0,1-1.79,5.92,18.27,18.27,0,0,1-3.68,3.5l-1.65,1.27a3.55,3.55,0,0,0-1.28,1.72,23.71,23.71,0,0,0-.26,4.86A1.45,1.45,0,0,1,36.42,43.84ZM33.19,21.25c1.68,0,2.81.43,3.4,1.26a5,5,0,0,1,.94,3A4.21,4.21,0,0,1,36.67,28a5.26,5.26,0,0,1-1.24,1.26l-1.7,1.33a9.9,9.9,0,0,0-3.25,3.63c-.42,1-.68,2.68-.8,8.12a.42.42,0,0,0,.12.33.48.48,0,0,0,.34.14l6.28,0a.45.45,0,0,0,.45-.45c0-3.62.13-4.6.31-5.15A4.47,4.47,0,0,1,38.8,35l1.65-1.27a17.67,17.67,0,0,0,3.48-3.29,8.82,8.82,0,0,0,1.6-5.35,9,9,0,0,0-3.62-7.81h0a15,15,0,0,0-9-2.62,12.7,12.7,0,0,0-7,1.81c-3,1.91-4.29,5.13-4.5,11.49a.44.44,0,0,0,.13.34.46.46,0,0,0,.32.13l6.51-.06a.44.44,0,0,0,.33-.14.43.43,0,0,0,.13-.34c-.15-2.83.25-4.09.9-5.11A3.66,3.66,0,0,1,33.19,21.25Z"/><path d="M35,54.31H32a3.65,3.65,0,0,1-3.6-3.59c0-.07,0-.11,0-.14v-3A3.67,3.67,0,0,1,32,44h3a3.65,3.65,0,0,1,3.59,3.57c0,.06,0,.11,0,.17v2.86a1.49,1.49,0,0,1,0,.21A3.62,3.62,0,0,1,35,54.31ZM32,45a2.67,2.67,0,0,0-2.6,2.63v3a.62.62,0,0,1,0,.13,2.65,2.65,0,0,0,2.6,2.6h3a2.65,2.65,0,0,0,2.59-2.62l.51-.11h-.5v-3A2.66,2.66,0,0,0,35,45Z"/></svg>