<svg id="레이어_1" data-name="레이어 1" xmlns="http://www.w3.org/2000/svg" viewBox="0 0 70 61"><defs><style>.cls-1{fill:#f56885;}</style></defs><path class="cls-1" d="M35,49.27,18.77,31.58a11.5,11.5,0,0,1-1.17-1.27l-1.39-1.76.35.18a11.12,11.12,0,0,1-.84-2,11.88,11.88,0,0,1-.58-3.7,11.59,11.59,0,0,1,3-7.86A9.57,9.57,0,0,1,25.21,12a9.38,9.38,0,0,1,5.5,1.81,10.94,10.94,0,0,1,3.67,4.7.71.71,0,0,0,1.25,0,10.84,10.84,0,0,1,3.66-4.7A9.38,9.38,0,0,1,44.79,12a9.57,9.57,0,0,1,7.09,3.24,11.59,11.59,0,0,1,3,7.86,12,12,0,0,1-.6,3.78,11.22,11.22,0,0,1-2.37,4.07l-13.75,15h0ZM18.46,29.79a9.24,9.24,0,0,0,.95,1l.08.07L35,47.8l3-3.3h0L51.16,30.24a10.42,10.42,0,0,0,2.15-3.71,11.25,11.25,0,0,0,.55-3.47,10.61,10.61,0,0,0-2.71-7.19h0A8.63,8.63,0,0,0,44.79,13a8.35,8.35,0,0,0-4.91,1.62,9.83,9.83,0,0,0-3.33,4.27,1.67,1.67,0,0,1-3.09,0,9.92,9.92,0,0,0-3.34-4.27A8.32,8.32,0,0,0,25.21,13a8.66,8.66,0,0,0-6.36,2.91,10.61,10.61,0,0,0-2.71,7.19,11.07,11.07,0,0,0,.53,3.39,10.14,10.14,0,0,0,1.72,3.25Z"/></svg>