<svg id="레이어_1" data-name="레이어 1" xmlns="http://www.w3.org/2000/svg" viewBox="0 0 67 68"><defs><style>.cls-1{fill:#7f5edd;}</style></defs><path class="cls-1" d="M42.2,16.91A15.38,15.38,0,0,0,33,14.19h-.07a13.07,13.07,0,0,0-7.18,1.89c-3.19,2-4.52,5.35-4.73,11.89a1,1,0,0,0,.26.7,1,1,0,0,0,.69.29h0l6.51-.06a1,1,0,0,0,.69-.3,1,1,0,0,0,.26-.71c-.15-2.69.22-3.87.82-4.82a3.23,3.23,0,0,1,3-1.32h0c1.48,0,2.48.36,3,1.05A4.51,4.51,0,0,1,37,25.47a3.69,3.69,0,0,1-.76,2.24v0a5.1,5.1,0,0,1-1.13,1.15l-1.71,1.33A10.33,10.33,0,0,0,30,34c-.44,1.09-.71,2.79-.83,8.3a.93.93,0,0,0,.27.69.94.94,0,0,0,.68.29l6.29,0h0a1,1,0,0,0,.95-1c0-3.54.13-4.52.28-5a4,4,0,0,1,1.46-2l1.64-1.27a18.22,18.22,0,0,0,3.59-3.4A9.35,9.35,0,0,0,46,25.13a9.49,9.49,0,0,0-3.83-8.22Z"/><path d="M38.11,47.59A3.17,3.17,0,0,0,35,44.48H32a3.17,3.17,0,0,0-3.1,3.11s0,.09,0,.13v2.86s0,.08,0,.12A3.16,3.16,0,0,0,32,53.81h3a3.16,3.16,0,0,0,3.09-3.11.49.49,0,0,0,0-.12V47.72a.62.62,0,0,0,0-.13Z"/></svg>