<svg id="레이어_1" data-name="레이어 1" xmlns="http://www.w3.org/2000/svg" viewBox="0 0 70 61"><defs><style>.cls-1{fill:#f56885;}</style></defs><path class="cls-1" d="M51.52,15.53a9.14,9.14,0,0,0-6.73-3.07,8.87,8.87,0,0,0-5.2,1.71,10.46,10.46,0,0,0-3.5,4.49,1.19,1.19,0,0,1-1.09.72,1.16,1.16,0,0,1-1.08-.72,10.61,10.61,0,0,0-3.5-4.49,8.9,8.9,0,0,0-5.21-1.71,9.17,9.17,0,0,0-6.73,3.07,11.2,11.2,0,0,0-2.84,7.53,11.78,11.78,0,0,0,.55,3.55A11.18,11.18,0,0,0,18,30h0a11.12,11.12,0,0,0,1.08,1.18l.07.06L35,48.54l3.06-3.34h0L45,37.69h0l6.52-7.09a0,0,0,0,0,0,0,10.85,10.85,0,0,0,2.26-3.89h0a11.46,11.46,0,0,0-2.26-11.15Z"/></svg>